# xmcd
# 
# Track frame offsets:
#     150
#     18348
#     43457
#     55727
#     67359
#     81993
#     109173
# 
# Disc length: 4468
# 
# Revision: 0
# Processed by: cddbd v1.5.2PL0 Copyright (c) Steve Scherf et al.
# Submitted via: fre:ac v1.0.17
# 
DISCID=64117207
DTITLE=skol diwan ar faou - beaj er park
DYEAR=2016
DGENRE=
TTITLE0=dans ar c'hoad
TTITLE1=ront eusa
TTITLE2=denvd a zo
TTITLE3=badaboum tralala tsointsoin
TTITLE4=ar miziou
TTITLE5=polka zéphyr
TTITLE6=Data track
EXTD=
EXTT0=
EXTT1=
EXTT2=
EXTT3=
EXTT4=
EXTT5=
EXTT6=
PLAYORDER=
